<?xml version="1.0" standalone="no"?><!DOCTYPE svg PUBLIC "-//W3C//DTD SVG 1.1//EN" "http://www.w3.org/Graphics/SVG/1.1/DTD/svg11.dtd"><svg t="1748061842188" class="icon" viewBox="0 0 1024 1024" version="1.1" xmlns="http://www.w3.org/2000/svg" p-id="6376" xmlns:xlink="http://www.w3.org/1999/xlink" width="200" height="200"><path d="M929 361.8V719c0 27.5-14.4 66-82.4 69.8l-665.9-19.9c-27.5 0-49.9-22.4-49.9-49.9l-11.7-316.8 339.1 169.4c28.9 14.9 81.7 1.5 110.4-13.7L929 361.8z" fill="#2280BF" p-id="6377"></path><path d="M928.7 311.1L544.6 475.7c-27.6 15.2-60.7 21.2-88.5 6.4L107.2 317.2l-9.3-7.9c2.1-56.9 41.6-74.8 68-74.8h671c58.7 2.9 82.6 22 89 59.1 3.2 20.9 2.8 17.5 2.8 17.5z" fill="#2280BF" p-id="6378"></path><path d="M895.6 314.5v10.4L541.5 511.6a99.58 99.58 0 0 1-92.1 0.5L97.5 331.5v-17c0-27.5 22.4-49.9 49.9-49.9h698.4c27.4 0 49.8 22.4 49.8 49.9z" fill="#4EB3FF" p-id="6379"></path><path d="M895.6 381.3v357.2c0 27.5-22.4 49.9-49.9 49.9H147.4c-27.5 0-49.9-22.4-49.9-49.9v-351l352.3 180.8c28.9 14.9 63.3 14.7 92-0.5l353.8-186.5z" fill="#4EB3FF" p-id="6380"></path></svg>