<?xml version="1.0" standalone="no"?><!DOCTYPE svg PUBLIC "-//W3C//DTD SVG 1.1//EN" "http://www.w3.org/Graphics/SVG/1.1/DTD/svg11.dtd"><svg t="1747662983327" class="icon" viewBox="0 0 1024 1024" version="1.1" xmlns="http://www.w3.org/2000/svg" p-id="5275" xmlns:xlink="http://www.w3.org/1999/xlink" width="200" height="200"><path d="M837.72441406 476.83847656H186.56474609l-2.50488281-0.76289062c-35.5921875-10.84394531-61.06025391-52.5375-76.15546875-85.60458985-15.51005859-33.97324219-26.81367188-73.91513672-26.87695312-94.97197265v-0.05888672c-10.93183594-12.26601562-16.66142578-25.959375-16.66142579-40.01660156 0-8.77939453 6.36240234-16.40917969 14.99501954-18.23466797a19.60839844 19.60839844 0 0 1 4.28378906-0.47197266c4.49384766 0 8.88310547 1.53544922 12.36005859 4.32333984l0.29003906 0.2381836c34.37490234 28.79121094 78.24726563 45.30410156 120.36884766 45.30410156 23.66894531 0 44.23183594-5.35429687 57.77578125-14.86669922v-82.6453125c0-16.35292969 15.71220703-29.16386719 35.76972656-29.16386719 15.72363281 0 28.77451172 7.87148438 33.68232422 19.15048829h336.21240235c4.9078125-11.27900391 17.96308594-19.15048828 33.68408203-19.15048828 20.05751953 0 35.76972656 12.81005859 35.76972656 29.16386718v82.67167969c13.39013672 9.37880859 34.33798828 14.84121094 57.77578125 14.84121094 41.96689453 0 85.76191406-16.45927734 120.20097656-45.16435547 3.47431641-3.00146484 8.06660156-4.70126953 12.80039063-4.70126953 1.84042969 0 3.65625 0.25400391 5.40351562 0.75410156 8.30654297 2.37832031 13.88847656 9.59238281 13.88847656 17.95253906l-0.0008789 0.13798828c-0.10898438 13.91484375-5.73574219 27.51240234-16.37138672 39.73359375v0.15117188c-0.06328125 21.11044922-11.36777344 61.05146484-26.87783203 95.02470703-15.09697266 33.06708984-40.56064453 74.76152344-76.15371094 85.60458984l-2.49873047 0.76201172zM852.96904297 906.83017578H170.93427734c-3.19130859 0-6.24990234-0.7171875-9.08964843-2.13662109-6.30351563-3.15-10.21201172-9.46669922-10.21201172-16.49707031v-74.30009766c0-6.16376953 3.09814453-11.91181641 8.28896484-15.38085938l0.91230469-0.61083984 0.98173828-0.49130859c2.80722656-1.40888672 5.99414063-2.14892578 9.21533203-2.14892578h25.56298828V515.22382813h630.80947266v280.04326171h25.565625c3.20361328 0 6.27099609 0.72246094 9.11777344 2.14892578 6.28066406 3.14648438 10.18300781 9.46230469 10.18300781 16.48300782v74.30009765c0 6.16464844-3.09990234 11.91533203-8.29511719 15.38261719-3.21503906 2.13574219-7.00576172 3.2484375-11.00566406 3.2484375z" fill="#9F834B" p-id="5276"></path><path d="M364.63203125 607.85703125h127.45986328v228.22382813H364.63203125zM538.32236328 607.85703125H665.78222656v228.22382813H538.32236328z" fill="#C6991C" p-id="5277"></path></svg>