<?xml version="1.0" standalone="no"?><!DOCTYPE svg PUBLIC "-//W3C//DTD SVG 1.1//EN" "http://www.w3.org/Graphics/SVG/1.1/DTD/svg11.dtd"><svg t="1748062032301" class="icon" viewBox="0 0 1024 1024" version="1.1" xmlns="http://www.w3.org/2000/svg" p-id="16025" xmlns:xlink="http://www.w3.org/1999/xlink" width="200" height="200"><path d="M985.6 499.712c28.672-28.16 38.912-69.12 26.624-107.52-12.288-38.4-45.056-65.536-84.992-71.68l-194.048-28.16c-17.408-2.56-32.768-13.312-40.448-29.184l-86.528-175.616C588.288 51.2 552.448 28.672 512 28.672 471.552 28.672 435.712 51.2 417.792 87.04L331.264 263.168c-7.68 15.872-23.04 27.136-40.448 29.184l-194.048 28.16c-39.936 5.632-72.192 33.28-84.992 71.68-12.288 38.4-2.048 79.36 26.624 107.52l140.288 136.704c12.8 12.288 18.432 30.208 15.36 47.616l-33.28 193.024c-6.656 39.936 9.216 78.848 41.984 102.912 32.768 23.552 74.752 26.624 110.592 8.192l173.568-91.136c15.872-8.192 34.304-8.192 50.176 0l173.568 91.136c15.36 8.192 32.256 12.288 49.152 12.288 21.504 0 43.008-6.656 61.44-19.968 32.768-23.552 48.64-62.976 41.984-102.912l-33.28-193.024c-3.072-17.408 2.56-35.328 15.36-47.616l140.288-137.216z" fill="#FDD50A" p-id="16026"></path></svg>