<?xml version="1.0" standalone="no"?><!DOCTYPE svg PUBLIC "-//W3C//DTD SVG 1.1//EN" "http://www.w3.org/Graphics/SVG/1.1/DTD/svg11.dtd"><svg t="1747663192742" class="icon" viewBox="0 0 1024 1024" version="1.1" xmlns="http://www.w3.org/2000/svg" p-id="10084" xmlns:xlink="http://www.w3.org/1999/xlink" width="200" height="200"><path d="M895.02 952.25H128.98c-30.22 0-54.72-24.5-54.72-54.72v-465.1h875.48v465.1c0 30.22-24.5 54.72-54.72 54.72z" fill="#8C9EFF" p-id="10085"></path><path d="M512 234.08c-11.33 0-20.52-9.18-20.52-20.52V76.77c0-11.33 9.19-20.52 20.52-20.52s20.52 9.18 20.52 20.52v136.79c0 11.34-9.19 20.52-20.52 20.52z" fill="#FFFFFF" p-id="10086"></path><path d="M730.87 432.44H293.13V268.28c0-30.22 24.5-54.72 54.72-54.72h328.3c30.22 0 54.72 24.5 54.72 54.72v164.16z" fill="#313FA0" p-id="10087"></path><path d="M949.74 432.44H74.26v-54.72c0-30.22 24.5-54.72 54.72-54.72h766.04c30.22 0 54.72 24.5 54.72 54.72v54.72z" fill="#FFFFFF" p-id="10088"></path><path d="M640.59 135.14H573.2c-11.33 0-20.52-9.18-20.52-20.52v-0.03H512c-11.33 0-20.52-9.18-20.52-20.52s9.19-20.52 20.52-20.52h61.2c11.33 0 20.52 9.18 20.52 20.52v0.03h46.88c11.33 0 20.52 9.18 20.52 20.52s-9.2 20.52-20.53 20.52z" fill="#FF3333" p-id="10089"></path><path d="M334.17 952.25H170.02V706.02c0-45.33 36.75-82.08 82.08-82.08s82.08 36.75 82.08 82.08v246.23zM594.08 952.25H429.92V706.02c0-45.33 36.75-82.08 82.08-82.08s82.08 36.75 82.08 82.08v246.23zM853.98 952.25H689.83V706.02c0-45.33 36.75-82.08 82.08-82.08s82.08 36.75 82.08 82.08v246.23z" fill="#FFD600" p-id="10090"></path></svg>