<?xml version="1.0" standalone="no"?><!DOCTYPE svg PUBLIC "-//W3C//DTD SVG 1.1//EN" "http://www.w3.org/Graphics/SVG/1.1/DTD/svg11.dtd"><svg t="1747668778569" class="icon" viewBox="0 0 1024 1024" version="1.1" xmlns="http://www.w3.org/2000/svg" p-id="12614" xmlns:xlink="http://www.w3.org/1999/xlink" width="200" height="200"><path d="M328.775111 680.177778h549.646222c27.306667 0 44.942222-28.544 32.540445-52.593778l-192.64-374.328889c-11.889778-23.082667-43.591111-26.695111-60.444445-6.940444L300.842667 620.657778c-20.081778 23.566222-3.143111 59.534222 27.918222 59.534222z" fill="#4BE2AC" p-id="12615"></path><path d="M90.723556 678.229333h398.407111c19.911111 0 32.782222-20.835556 23.751111-38.385777l-140.586667-273.208889c-8.675556-16.824889-31.815111-19.456-44.131555-5.048889L70.343111 634.808889c-14.648889 17.194667-2.289778 43.434667 20.380445 43.434667z" fill="#4BE2AC" p-id="12616"></path><path d="M432.156444 482.972444l80.725334 156.871112c9.031111 17.550222-3.84 38.4-23.751111 38.4H316.728889c-22.997333-7.808-33.137778-37.290667-15.857778-57.585778l131.299556-137.671111z" fill="#06CC76" p-id="12617"></path><path d="M65.763556 736.739556m33.692444 0l826.851556 0q33.692444 0 33.692444 33.692444l0 7.978667q0 33.692444-33.692444 33.692444l-826.851556 0q-33.692444 0-33.692444-33.692444l0-7.978667q0-33.692444 33.692444-33.692444Z" fill="#06CC76" p-id="12618"></path><path d="M217.969778 868.636444m33.692444 0l522.439111 0q33.692444 0 33.692445 33.692445l0 7.978667q0 33.692444-33.692445 33.692444l-522.439111 0q-33.692444 0-33.692444-33.692444l0-7.978667q0-33.692444 33.692444-33.692445Z" fill="#06CC76" p-id="12619"></path><path d="M328.775111 184.291556c0 57.6 47.160889 104.291556 105.315556 104.291555 58.168889 0 105.315556-46.691556 105.315555-104.291555 0-57.6-47.146667-104.291556-105.315555-104.291556s-105.315556 46.691556-105.315556 104.291556z" fill="#4BE2AC" p-id="12620"></path></svg>