<?xml version="1.0" standalone="no"?><!DOCTYPE svg PUBLIC "-//W3C//DTD SVG 1.1//EN" "http://www.w3.org/Graphics/SVG/1.1/DTD/svg11.dtd"><svg t="1747663273210" class="icon" viewBox="0 0 1024 1024" version="1.1" xmlns="http://www.w3.org/2000/svg" p-id="11323" xmlns:xlink="http://www.w3.org/1999/xlink" width="200" height="200"><path d="M393.29 930.13V352.18l219.14-155.31 111.31 111.31L737.1 913.5z" fill="#81C8BE" p-id="11324"></path><path d="M387.31 936.41V349.08L613.1 189.07l116.56 116.57 0.06 2.41 13.49 611.15-355.9 17.21z m11.97-581.14v568.58l331.7-16.04-13.17-597.1-106.03-106.03-212.5 150.59z" fill="#81C8BE" p-id="11325"></path><path d="M401.53 760.98h207.23v140H401.53z" fill="#C6E6E2" p-id="11326"></path><path d="M253.33 275.06h59.85v638.45h-59.85zM707.17 275.06h59.85v638.45h-59.85z" fill="#1E4D48" p-id="11327"></path><path d="M159.81 913.51H99.96V442.25h183.29v59.85H159.81zM925.77 913.51h-59.85V502.1H737.11v-59.85h188.66z" fill="#1E4D48" p-id="11328"></path><path d="M61.03 883.58h898.31v59.85H61.03zM789.81 358.61L510.04 161.27 244.28 345.68l-34.11-49.17L510.32 88.23l313.99 221.46z" fill="#1E4D48" p-id="11329"></path><path d="M626.18 913.51h-59.85V777.54H450.9v135.97h-59.85V717.69h235.13z" fill="#1E4D48" p-id="11330"></path><path d="M509.73 451.37m-88.76 0a88.76 88.76 0 1 0 177.52 0 88.76 88.76 0 1 0-177.52 0Z" fill="#C6E6E2" p-id="11331"></path><path d="M509.72 570.05c-65.44 0-118.68-53.24-118.68-118.68s53.24-118.69 118.68-118.69 118.69 53.25 118.69 118.69-53.24 118.68-118.69 118.68z m0-177.51c-32.44 0-58.82 26.4-58.82 58.84s26.38 58.82 58.82 58.82 58.84-26.38 58.84-58.82-26.4-58.84-58.84-58.84z" fill="#1E4D48" p-id="11332"></path></svg>